# xmcd CD database file
#
# Track frame offsets:
#	150
#	14237
#	37690
#	62330
#	84672
#	103680
#	125030
#	150435
#
# Disc length: 2199 seconds
#
# Revision: 1
# Processed by: cddbd v1.5.1PL0 Copyright (c) Steve Scherf et al.
# Submitted via: CDex 1.51
#
DISCID=5c089508
DTITLE=Hamburg Blues Band Featuring Dick Heckstall-Smith - Live
DYEAR=1989
DGENRE=Blues
TTITLE0=Don't  Talk To Me
TTITLE1=Midnight Lies
TTITLE2=Inner City Blues
TTITLE3=Rollin'
TTITLE4=Early One Morning
TTITLE5=I Know
TTITLE6=Ain't That I Don't Love You
TTITLE7=Power Of The Blues
EXTD=YEAR: 1989
EXTT0=
EXTT1=
EXTT2=
EXTT3=
EXTT4=
EXTT5=
EXTT6=
EXTT7=
PLAYORDER=
